<svg xmlns="http://www.w3.org/2000/svg" width="64" height="64" viewBox="0 0 64 64" role="img" aria-label="Vibe Proxy">
  <defs>
    <linearGradient id="bg" x1="5" y1="4" x2="59" y2="61" gradientUnits="userSpaceOnUse">
      <stop stop-color="#7657FF"/>
      <stop offset=".48" stop-color="#4A24AF"/>
      <stop offset="1" stop-color="#1C0747"/>
    </linearGradient>
  </defs>
  <rect x="2" y="2" width="60" height="60" rx="15" fill="url(#bg)"/>
  <g transform="translate(32 32) scale(.070) translate(-512 -512)">
    <path fill="#CFC6FF" d="M334.334 365.534C332.911 372.588 331.769 379.602 330.612 386.297C315.495 473.776 343.694 567.749 420.503 618.007C459.371 643.032 505.733 653.758 551.642 648.346C563.557 647.05 574.223 644.563 585.911 642.091C581.728 649.091 575.558 656.733 570.17 662.948C540.434 697.249 501.581 719.66 458.881 733.804C407.097 751.578 342.345 751.965 289.117 741.833C267.873 737.789 229.389 732.186 216.911 713.71C199.277 687.599 208.1 628.045 213.386 598.374C225.637 529.599 253.594 455.011 298.318 400.69C308.976 387.746 320.436 375.196 334.334 365.534Z"/>
    <path fill="#59DFB7" d="M591.974 403.43C596.941 403.587 608.362 406.149 613.365 407.381C647.48 415.723 679.273 431.653 706.379 453.984C771.375 507.71 808.912 598.77 815.964 681.332C817.405 698.208 816.847 711.925 805.727 726.286C800.365 733.21 785.874 740.503 777.692 744.48C731.941 766.713 676.291 783.084 625.442 787.153C573.515 792.479 510.422 788.564 461.063 770.445C468.667 767.391 476.817 764.999 484.698 761.745C514.395 749.482 540.022 735.53 564.868 715.13C611.631 676.735 642.775 624.685 648.476 563.849C652.876 516.903 639.957 472.125 614.338 432.792C607.235 421.885 600.17 413.43 591.974 403.43Z"/>
    <path fill="#F8F6FF" d="M515.124 180.687C534.918 179.307 591.886 215.139 608.352 227.152C690.002 286.719 749.837 362.599 766.681 463.678C754.194 448.093 728.487 424.453 711.74 413.368C658.793 378.321 603.633 363.191 541.125 374.835C519.291 379.169 495.196 389 476.344 400.781C437.141 425.178 407.748 462.564 393.295 506.419C389.799 516.725 387.166 528.246 384.713 538.886C382.057 532.485 378.533 526.208 376.07 519.763C331.601 403.436 391.341 268.337 484.674 194.47C494.703 186.533 502.442 182.207 515.124 180.687Z"/>
  </g>
</svg>
